<svg width="35" height="36" viewBox="0 0 35 36" fill="none" xmlns="http://www.w3.org/2000/svg">
<g opacity="0.5">
<path d="M14.4019 4.5C15.5566 2.5 18.4434 2.5 19.5981 4.5L29.1244 21C30.2791 23 28.8357 25.5 26.5263 25.5H7.47372C5.16432 25.5 3.72094 23 4.87564 21L14.4019 4.5Z" fill="#0071DC"/>
<path d="M14.4019 4.5C15.5566 2.5 18.4434 2.5 19.5981 4.5L29.1244 21C30.2791 23 28.8357 25.5 26.5263 25.5H7.47372C5.16432 25.5 3.72094 23 4.87564 21L14.4019 4.5Z" fill="white" fill-opacity="0.6"/>
</g>
<path d="M15.0298 17C13.3626 17 12 18.4323 12 20.1854C12 21.1901 12.4479 22.0863 13.1403 22.6677V31.3199V31.3197C13.1403 31.6954 13.4301 32 13.7873 32H32.2127C32.5699 32 32.8597 31.6954 32.8597 31.3197V22.668C33.5521 22.0866 34 21.1904 34 20.1857C34 18.4328 32.6376 17.0003 30.9702 17.0003L15.0298 17ZM15.0298 18.3606H23.2659C24.2388 18.3606 25.0016 19.1625 25.0016 20.1854C25.0016 20.8518 24.6709 21.4135 24.1704 21.7356C23.9783 21.8591 23.8613 22.0789 23.8613 22.3156V30.6393H14.4342V22.3156C14.4342 22.079 14.3171 21.8592 14.1252 21.7356C13.6247 21.4135 13.294 20.8518 13.294 20.1854C13.294 19.1625 14.0568 18.3606 15.0297 18.3606H15.0298ZM25.7464 18.3606H30.9704C31.9434 18.3606 32.7062 19.1625 32.7062 20.1854C32.7062 20.8518 32.3754 21.4135 31.875 21.7356H31.8748C31.6829 21.8591 31.5657 22.0789 31.5657 22.3156V30.6393H25.1557V22.6679C25.8481 22.0865 26.296 21.1903 26.296 20.1856C26.296 19.508 26.0924 18.8784 25.7464 18.3608L25.7464 18.3606ZM18.2226 21.7773H18.2224C18.0543 21.7824 17.8949 21.8563 17.7775 21.9831L16.0366 23.8134C15.9124 23.9404 15.8418 24.1142 15.8405 24.2965C15.8393 24.4787 15.9075 24.6537 16.0299 24.7824C16.1525 24.9113 16.319 24.983 16.4923 24.9817C16.6656 24.9804 16.831 24.9061 16.9518 24.7754L18.6927 22.945V22.9452C18.8841 22.7495 18.9415 22.4505 18.8375 22.192C18.7335 21.9337 18.4892 21.769 18.2224 21.7773H18.2226ZM20.4076 23.2294H20.4074C20.2394 23.2347 20.0799 23.3083 19.9628 23.4351L17.4179 26.1106C17.2935 26.2376 17.2229 26.4117 17.2217 26.5937C17.2204 26.7759 17.2886 26.9509 17.4112 27.0798C17.5336 27.2085 17.7003 27.2803 17.8734 27.2789C18.0467 27.2776 18.2123 27.2034 18.3329 27.0728L20.8778 24.3973C21.0691 24.2016 21.1267 23.9026 21.0227 23.6441C20.9186 23.3858 20.6743 23.221 20.4075 23.2294L20.4076 23.2294ZM21.7888 25.5266C21.6207 25.5319 21.4611 25.6058 21.3439 25.7326L19.603 27.5629V27.5627C19.4789 27.6897 19.4085 27.8637 19.4073 28.0456C19.4062 28.2276 19.4744 28.4026 19.5968 28.5313C19.7192 28.66 19.8855 28.7317 20.0587 28.7306C20.2318 28.7293 20.3972 28.6552 20.5179 28.5248L22.2589 26.6945C22.4503 26.499 22.5079 26.1999 22.4039 25.9415C22.2997 25.683 22.0554 25.5185 21.7887 25.5266L21.7888 25.5266Z" fill="#1A162E"/>
</svg>
