<svg width="36" height="36" viewBox="0 0 36 36" fill="none" xmlns="http://www.w3.org/2000/svg">
<path d="M7.5 27.9904C9.86806 29.3576 12.5648 30.0515 15.2987 29.997C18.0325 29.9426 20.6995 29.1419 23.0113 27.6815C25.323 26.2211 27.1916 24.1565 28.415 21.7111C29.6384 19.2656 30.17 16.5322 29.9524 13.8065C29.7349 11.0808 28.7764 8.46636 27.1806 6.24592C25.5848 4.02548 23.4123 2.2835 20.8982 1.20829C18.3841 0.133086 15.6238 -0.234428 12.916 0.145481C10.2081 0.525389 7.65554 1.63827 5.53434 3.3638L15 15L7.5 27.9904Z" fill="#FFB700"/>
<path d="M7.5 27.9904C9.86806 29.3576 12.5648 30.0515 15.2987 29.997C18.0325 29.9426 20.6995 29.1419 23.0113 27.6815C25.323 26.2211 27.1916 24.1565 28.415 21.7111C29.6384 19.2656 30.17 16.5322 29.9524 13.8065C29.7349 11.0808 28.7764 8.46636 27.1806 6.24592C25.5848 4.02548 23.4123 2.2835 20.8982 1.20829C18.3841 0.133086 15.6238 -0.234428 12.916 0.145481C10.2081 0.525389 7.65554 1.63827 5.53434 3.3638L15 15L7.5 27.9904Z" fill="white" fill-opacity="0.4"/>
<path d="M23.0736 25.8292C23.0736 24.6764 22.0977 23.7363 20.9011 23.7363C19.7045 23.7363 18.7285 24.6765 18.7285 25.8292C18.7285 26.9819 19.7045 27.9221 20.9011 27.9221C22.1026 27.9221 23.0736 26.9819 23.0736 25.8292ZM20.1164 25.8292C20.1164 25.4135 20.4695 25.0733 20.9011 25.0733C21.3326 25.0733 21.6857 25.4135 21.6857 25.8292C21.6857 26.245 21.3326 26.5851 20.9011 26.5851C20.4695 26.5851 20.1164 26.2497 20.1164 25.8292Z" fill="#1A162E"/>
<path d="M27.1638 23.7383C25.9671 23.7383 24.9912 24.6784 24.9912 25.8312C24.9912 26.9839 25.9672 27.9241 27.1638 27.9241C28.3604 27.9241 29.3363 26.9839 29.3363 25.8312C29.3314 24.6737 28.3604 23.7383 27.1638 23.7383ZM27.1638 26.5824C26.7322 26.5824 26.3791 26.2422 26.3791 25.8265C26.3791 25.4107 26.7322 25.0706 27.1638 25.0706C27.5953 25.0706 27.9484 25.4107 27.9484 25.8265C27.9484 26.2422 27.5953 26.5824 27.1638 26.5824Z" fill="#1A162E"/>
<path d="M24.0002 12C17.9336 12 13 16.7574 13 22.6016C13 25.337 14.074 27.9166 16.021 29.8962C17.2372 33.4584 20.3563 36 24 36C27.6437 36 30.763 33.4583 31.979 29.8915C33.926 27.9167 35 25.3323 35 22.5968C35 16.7574 30.0664 12 23.9998 12H24.0002ZM15.4818 26.9102C15.1189 26.2488 14.8443 25.5449 14.6579 24.8126C15.0159 24.6756 15.369 24.5339 15.7074 24.3921C15.5308 25.2047 15.4524 26.041 15.4818 26.9102L15.4818 26.9102ZM25.045 13.3891C24.7948 15.0285 23.2942 19.9607 14.4223 23.4711C13.8289 16.9656 19.7531 12.7611 25.045 13.3891ZM24.0004 34.6675C20.0623 34.6675 16.8549 31.0391 16.8549 26.5793C16.8549 25.5636 17.0265 24.5809 17.3453 23.6503C20.5576 22.0676 22.6417 20.3007 23.9904 18.6566C25.0693 20.0503 27.5558 22.866 30.7583 23.9997C31.0084 24.8265 31.1409 25.691 31.1409 26.5792C31.1409 31.039 27.9384 34.6673 24.0003 34.6673L24.0004 34.6675ZM32.2883 24.3872C32.661 24.4439 33.0386 24.4817 33.4212 24.4817C33.2397 25.3321 32.9357 26.1447 32.5188 26.9101C32.5581 26.0975 32.4698 25.2565 32.2883 24.3873L32.2883 24.3872ZM33.6026 23.1447C29.4095 23.225 25.8146 18.8123 24.8439 17.504C25.9032 15.8835 26.2857 14.4757 26.4132 13.63C30.9006 14.7969 33.9021 18.7653 33.6026 23.1448V23.1447Z" fill="#1A162E"/>
<path d="M27.0753 31.5634C27.3892 31.3508 27.4628 30.9351 27.2421 30.6327C27.0214 30.3304 26.5898 30.2595 26.2759 30.4721C24.9126 31.3933 23.0784 31.3933 21.715 30.4721C21.4011 30.2595 20.9695 30.3351 20.7488 30.6327C20.5281 30.9351 20.6066 31.3508 20.9156 31.5634C22.8576 32.8248 25.1626 32.7965 27.0755 31.5634H27.0753Z" fill="#1A162E"/>
</svg>
