<svg width="33" height="36" viewBox="0 0 33 36" fill="none" xmlns="http://www.w3.org/2000/svg">
<path d="M13.5 0.866025C14.4282 0.330127 15.5718 0.330127 16.5 0.866025L26.4904 6.63397C27.4186 7.16987 27.9904 8.16025 27.9904 9.23205V20.768C27.9904 21.8397 27.4186 22.8301 26.4904 23.366L16.5 29.134C15.5718 29.6699 14.4282 29.6699 13.5 29.134L3.50962 23.366C2.58142 22.8301 2.00962 21.8397 2.00962 20.768V9.23205C2.00962 8.16025 2.58142 7.16987 3.50962 6.63397L13.5 0.866025Z" fill="#67B044"/>
<path d="M13.5 0.866025C14.4282 0.330127 15.5718 0.330127 16.5 0.866025L26.4904 6.63397C27.4186 7.16987 27.9904 8.16025 27.9904 9.23205V20.768C27.9904 21.8397 27.4186 22.8301 26.4904 23.366L16.5 29.134C15.5718 29.6699 14.4282 29.6699 13.5 29.134L3.50962 23.366C2.58142 22.8301 2.00962 21.8397 2.00962 20.768V9.23205C2.00962 8.16025 2.58142 7.16987 3.50962 6.63397L13.5 0.866025Z" fill="white" fill-opacity="0.5"/>
<path d="M12.577 22.4286H12.6634L14.889 34.56C14.9351 34.8115 15.1772 35 15.4598 35H24.6845C24.967 35 25.2092 34.8167 25.2554 34.56L27.3886 22.9368C27.4925 22.7639 27.5789 22.5859 27.6596 22.4077C27.9365 22.3658 28.144 22.1614 28.144 21.8996V19.8043C28.144 19.731 28.1266 19.6577 28.092 19.5947C27.9075 18.0966 27.0658 16.7557 25.7974 15.7395L26.979 14.0477H29.4234C29.7406 14.0477 30 13.812 30 13.5239C30 13.2357 29.7406 13 29.4234 13H26.6618C26.4659 13 26.2813 13.0944 26.1717 13.2462L24.8745 15.1111C23.5311 14.315 21.865 13.8383 20.0719 13.8383C15.9208 13.8383 12.4389 16.3631 12.0519 19.6001C12.0232 19.6628 12 19.7363 12 19.8096V21.9049C12.0002 22.1929 12.2596 22.4286 12.5768 22.4286L12.577 22.4286ZM24.194 33.9525H15.9438L13.8279 22.4286H26.3039L24.194 33.9525ZM20.0717 14.8857C21.6399 14.8857 23.0985 15.2944 24.2689 15.991L23.2657 17.4366C23.0985 17.6829 23.1734 18.0024 23.4445 18.1596C23.5425 18.212 23.6462 18.2381 23.75 18.2381C23.9404 18.2381 24.1305 18.1491 24.2402 17.9919L25.1799 16.6353C26.0331 17.3633 26.6385 18.2695 26.875 19.2806H13.2689C13.8453 16.7767 16.6991 14.8857 20.0717 14.8857L20.0717 14.8857ZM13.1533 20.3332H26.9902V21.3807H13.1533V20.3332Z" fill="#1A162E"/>
</svg>
