<svg width="33" height="36" viewBox="0 0 33 36" fill="none" xmlns="http://www.w3.org/2000/svg">
<path d="M13.8519 0.475538C14.587 0.171056 15.413 0.171056 16.1481 0.475538L24.4586 3.91786C25.1936 4.22234 25.7777 4.80636 26.0821 5.54145L29.5245 13.8519C29.8289 14.587 29.8289 15.413 29.5245 16.1481L26.0821 24.4586C25.7777 25.1936 25.1936 25.7777 24.4586 26.0821L16.1481 29.5245C15.413 29.8289 14.587 29.8289 13.8519 29.5245L5.54145 26.0821C4.80636 25.7777 4.22234 25.1936 3.91786 24.4586L0.475538 16.1481C0.171056 15.413 0.171056 14.587 0.475538 13.8519L3.91786 5.54145C4.22234 4.80636 4.80636 4.22234 5.54145 3.91786L13.8519 0.475538Z" fill="#F94545"/>
<path d="M13.8519 0.475538C14.587 0.171056 15.413 0.171056 16.1481 0.475538L24.4586 3.91786C25.1936 4.22234 25.7777 4.80636 26.0821 5.54145L29.5245 13.8519C29.8289 14.587 29.8289 15.413 29.5245 16.1481L26.0821 24.4586C25.7777 25.1936 25.1936 25.7777 24.4586 26.0821L16.1481 29.5245C15.413 29.8289 14.587 29.8289 13.8519 29.5245L5.54145 26.0821C4.80636 25.7777 4.22234 25.1936 3.91786 24.4586L0.475538 16.1481C0.171056 15.413 0.171056 14.587 0.475538 13.8519L3.91786 5.54145C4.22234 4.80636 4.80636 4.22234 5.54145 3.91786L13.8519 0.475538Z" fill="white" fill-opacity="0.3"/>
<path d="M27.9226 34.9995C27.9083 34.9995 27.894 34.9995 27.8797 34.9987C27.5985 34.9866 27.3339 34.8569 27.153 34.6419C25.5902 32.7836 25.2925 30.5985 26.4456 29.4455C27.5984 28.2926 29.7848 28.5902 31.6422 30.1527C31.8569 30.3331 31.987 30.5981 31.9993 30.8795C32.0115 31.1615 31.9041 31.4376 31.7044 31.6373L31.6254 31.7166L31.5189 31.7502C31.2665 31.8303 30.9724 31.8343 30.6913 31.8298C30.4713 31.8329 30.1398 31.829 30.0449 31.8933C29.5424 32.2321 29.1102 32.6838 28.7945 33.1998C28.7828 33.2485 28.8056 33.4764 28.8191 33.6124C28.8462 33.8827 28.874 34.1625 28.79 34.4046L28.7117 34.6293L28.6374 34.7036C28.448 34.8932 28.1895 34.9996 27.9225 34.9996L27.9226 34.9995ZM27.0936 30.0938C26.3114 30.8761 26.6456 32.6145 27.8544 34.0522C27.8748 34.0764 27.9008 34.0822 27.919 34.0832C27.9212 34.0827 27.924 34.0827 27.9279 34.0832C27.937 34.0039 27.9187 33.8187 27.9071 33.7036C27.873 33.3617 27.8377 33.008 28.0126 32.7221C28.3965 32.0946 28.9217 31.5455 29.5322 31.1337C29.86 30.9121 30.3016 30.9099 30.6921 30.9134C30.8248 30.9126 30.9658 30.9139 31.0815 30.9036C31.0782 30.888 31.0703 30.87 31.0524 30.8549C29.615 29.6458 27.8763 29.3123 27.0936 30.0938L27.0936 30.0938Z" fill="#1A162E"/>
<path d="M13.7198 19.2546C12.6724 19.2546 11.4578 18.773 10.358 17.8479C10.1434 17.6675 10.0132 17.4025 10.0009 17.121C9.98879 16.8391 10.0962 16.563 10.2959 16.3633L10.3703 16.2885L10.5958 16.2107C10.8375 16.1274 11.1175 16.1546 11.3873 16.1816C11.5231 16.1954 11.7507 16.217 11.8204 16.1964C12.3162 15.8901 12.7682 15.4579 13.107 14.9562C13.1709 14.8612 13.1705 14.5296 13.1704 14.3103C13.1702 14.0272 13.17 13.7349 13.2502 13.4821L13.2839 13.3755L13.3629 13.2967C13.5625 13.097 13.84 12.9843 14.1207 13.0018C14.4018 13.0139 14.6665 13.1436 14.8473 13.3585C16.4101 15.2168 16.7079 17.402 15.5547 18.555C15.0844 19.0253 14.4417 19.2545 13.7198 19.2545L13.7198 19.2546ZM10.9168 17.0735V17.0815C10.9176 17.0994 10.9238 17.1254 10.9479 17.146C12.3856 18.3554 14.1245 18.6884 14.9067 17.9069C15.6889 17.1245 15.3547 15.3861 14.1459 13.9484C14.1306 13.9305 14.1125 13.9225 14.0969 13.9193C14.0867 14.0352 14.0871 14.178 14.0871 14.3092C14.0876 14.699 14.0879 15.1407 13.8668 15.4684C13.455 16.0785 12.9055 16.6038 12.2781 16.9879C11.993 17.1629 11.6387 17.1275 11.2966 17.0934C11.1825 17.0829 11.0003 17.0645 10.9169 17.0735L10.9168 17.0735ZM15.2307 18.2309H15.2352H15.2307Z" fill="#1A162E"/>
<path d="M24.3319 31.1301C22.2197 31.1301 19.6 29.8961 17.3524 27.6488C15.7554 26.0518 14.6099 24.1846 14.1275 22.3911C13.6208 20.5085 13.8974 18.9169 14.9059 17.9088C15.914 16.9003 17.5057 16.6237 19.3883 17.1304C21.1821 17.6134 23.0495 18.7588 24.6463 20.3557C26.2433 21.9527 27.3888 23.8199 27.8712 25.6134C28.3779 27.496 28.1013 29.0876 27.0928 30.0957C26.3931 30.7958 25.4306 31.1301 24.3315 31.1301H24.3319ZM17.6478 17.7994C16.7755 17.7994 16.0554 18.0554 15.5539 18.5567C14.7871 19.3234 14.5949 20.6008 15.0125 22.1531C15.4541 23.7939 16.5153 25.5157 18.0006 27.0009C20.9527 29.9531 24.8196 31.0731 26.445 29.4479C27.2118 28.6811 27.4039 27.4037 26.9863 25.8515C26.5447 24.2106 25.4835 22.4889 23.9983 21.0036C22.5131 19.5181 20.7913 18.4569 19.1502 18.0155C18.6131 17.8711 18.1091 17.7994 17.6476 17.7994L17.6478 17.7994Z" fill="#1A162E"/>
</svg>
