<svg width="36" height="36" viewBox="0 0 36 36" fill="none" xmlns="http://www.w3.org/2000/svg">
<path d="M7.5 27.9904C9.86806 29.3576 12.5648 30.0515 15.2987 29.997C18.0325 29.9426 20.6995 29.1419 23.0113 27.6815C25.323 26.2211 27.1916 24.1565 28.415 21.7111C29.6384 19.2656 30.17 16.5322 29.9524 13.8065C29.7349 11.0808 28.7764 8.46636 27.1806 6.24592C25.5848 4.02548 23.4123 2.2835 20.8982 1.20829C18.3841 0.133086 15.6238 -0.234428 12.916 0.145481C10.2081 0.525389 7.65554 1.63827 5.53434 3.3638L15 15L7.5 27.9904Z" fill="#F94545"/>
<path d="M7.5 27.9904C9.86806 29.3576 12.5648 30.0515 15.2987 29.997C18.0325 29.9426 20.6995 29.1419 23.0113 27.6815C25.323 26.2211 27.1916 24.1565 28.415 21.7111C29.6384 19.2656 30.17 16.5322 29.9524 13.8065C29.7349 11.0808 28.7764 8.46636 27.1806 6.24592C25.5848 4.02548 23.4123 2.2835 20.8982 1.20829C18.3841 0.133086 15.6238 -0.234428 12.916 0.145481C10.2081 0.525389 7.65554 1.63827 5.53434 3.3638L15 15L7.5 27.9904Z" fill="white" fill-opacity="0.6"/>
<path d="M30 20H31C32.0609 20 33.0783 20.4214 33.8284 21.1716C34.5786 21.9217 35 22.9391 35 24C35 25.0609 34.5786 26.0783 33.8284 26.8284C33.0783 27.5786 32.0609 28 31 28H30" stroke="#1A162E" stroke-width="1.5" stroke-linecap="round" stroke-linejoin="round"/>
<path d="M14 20H30V29C30 30.0609 29.5786 31.0783 28.8284 31.8284C28.0783 32.5786 27.0609 33 26 33H18C16.9391 33 15.9217 32.5786 15.1716 31.8284C14.4214 31.0783 14 30.0609 14 29V20Z" stroke="#1A162E" stroke-width="1.5" stroke-linecap="round" stroke-linejoin="round"/>
<path d="M18 13V16" stroke="#1A162E" stroke-width="1.5" stroke-linecap="round" stroke-linejoin="round"/>
<path d="M22 13V16" stroke="#1A162E" stroke-width="1.5" stroke-linecap="round" stroke-linejoin="round"/>
<path d="M26 13V16" stroke="#1A162E" stroke-width="1.5" stroke-linecap="round" stroke-linejoin="round"/>
</svg>
