<svg width="35" height="36" viewBox="0 0 35 36" fill="none" xmlns="http://www.w3.org/2000/svg">
<path d="M14.0611 2.13526C15.8135 0.862037 18.1865 0.862035 19.9389 2.13526L30.229 9.61145C31.9815 10.8847 32.7148 13.1415 32.0454 15.2016L28.1149 27.2984C27.4455 29.3585 25.5258 30.7533 23.3596 30.7533H10.6404C8.47424 30.7533 6.55445 29.3585 5.88508 27.2984L1.95461 15.2016C1.28524 13.1415 2.01853 10.8847 3.77097 9.61146L14.0611 2.13526Z" fill="#F94545"/>
<path d="M14.0611 2.13526C15.8135 0.862037 18.1865 0.862035 19.9389 2.13526L30.229 9.61145C31.9815 10.8847 32.7148 13.1415 32.0454 15.2016L28.1149 27.2984C27.4455 29.3585 25.5258 30.7533 23.3596 30.7533H10.6404C8.47424 30.7533 6.55445 29.3585 5.88508 27.2984L1.95461 15.2016C1.28524 13.1415 2.01853 10.8847 3.77097 9.61146L14.0611 2.13526Z" fill="white" fill-opacity="0.4"/>
<path fill-rule="evenodd" clip-rule="evenodd" d="M24.1043 16.177L25.9317 19.8278C26.1108 20.1862 26.4565 20.4347 26.8573 20.4922L30.9453 21.0806C31.9554 21.2264 32.3573 22.4505 31.6263 23.1519L28.6702 25.9924C28.3797 26.2718 28.2474 26.6733 28.3162 27.0676L29.0138 31.0778C29.1856 32.0698 28.1298 32.8267 27.227 32.3574L23.5732 30.4627C23.215 30.2768 22.786 30.2768 22.4268 30.4627L18.773 32.3574C17.8702 32.8267 16.8144 32.0698 16.9872 31.0778L17.6838 27.0676C17.7526 26.6733 17.6203 26.2718 17.3298 25.9924L14.3737 23.1519C13.6427 22.4505 14.0446 21.2264 15.0547 21.0806L19.1427 20.4922C19.5435 20.4347 19.8903 20.1862 20.0694 19.8278L21.8957 16.177C22.3477 15.2743 23.6523 15.2743 24.1043 16.177Z" stroke="#1A162E" stroke-width="1.5" stroke-linecap="round" stroke-linejoin="round"/>
</svg>
