<svg width="36" height="36" viewBox="0 0 36 36" fill="none" xmlns="http://www.w3.org/2000/svg">
<path d="M17.0489 2.92705C17.3483 2.00574 18.6517 2.00574 18.9511 2.92705L21.8167 11.7467C21.9506 12.1587 22.3346 12.4377 22.7678 12.4377H32.0413C33.0101 12.4377 33.4128 13.6773 32.6291 14.2467L25.1267 19.6976C24.7762 19.9522 24.6295 20.4036 24.7634 20.8156L27.6291 29.6353C27.9284 30.5566 26.874 31.3227 26.0902 30.7533L18.5878 25.3024C18.2373 25.0478 17.7627 25.0478 17.4122 25.3024L9.90976 30.7533C9.12605 31.3227 8.07157 30.5566 8.37092 29.6353L11.2366 20.8156C11.3705 20.4036 11.2238 19.9522 10.8733 19.6976L3.37088 14.2467C2.58717 13.6773 2.98994 12.4377 3.95867 12.4377H13.2322C13.6654 12.4377 14.0494 12.1587 14.1833 11.7467L17.0489 2.92705Z" fill="#67B044"/>
<path d="M17.0489 2.92705C17.3483 2.00574 18.6517 2.00574 18.9511 2.92705L21.8167 11.7467C21.9506 12.1587 22.3346 12.4377 22.7678 12.4377H32.0413C33.0101 12.4377 33.4128 13.6773 32.6291 14.2467L25.1267 19.6976C24.7762 19.9522 24.6295 20.4036 24.7634 20.8156L27.6291 29.6353C27.9284 30.5566 26.874 31.3227 26.0902 30.7533L18.5878 25.3024C18.2373 25.0478 17.7627 25.0478 17.4122 25.3024L9.90976 30.7533C9.12605 31.3227 8.07157 30.5566 8.37092 29.6353L11.2366 20.8156C11.3705 20.4036 11.2238 19.9522 10.8733 19.6976L3.37088 14.2467C2.58717 13.6773 2.98994 12.4377 3.95867 12.4377H13.2322C13.6654 12.4377 14.0494 12.1587 14.1833 11.7467L17.0489 2.92705Z" fill="white" fill-opacity="0.6"/>
<path d="M23.4857 33.9989C18.9511 33.9989 15.7156 32.7927 14.1224 30.5248C12.7498 28.5464 12.6272 25.9168 13.8039 22.9011C14.5883 20.8503 16.8187 19.4512 19.3434 19.4512C21.2308 19.4512 23.118 20.2233 24.7113 21.6467C25.5202 21.0194 27.4321 19.7408 29.5155 19.7408C31.4274 19.7408 32.947 20.7781 34.0501 22.8048C35.3001 25.145 35.3247 27.5335 34.0746 29.5841C32.3586 32.3826 28.5105 33.9992 23.4857 33.9992L23.4857 33.9989ZM19.3432 20.5609C17.2843 20.5609 15.4705 21.6708 14.8332 23.2872C14.1224 25.1449 13.5831 27.7987 15.0293 29.8976C16.4019 31.8518 19.3187 32.8892 23.4856 32.8892C28.0937 32.8892 31.6234 31.4659 33.1185 29.005C34.148 27.3162 34.1235 25.2897 33.0695 23.3113C32.1871 21.6466 30.9859 20.8264 29.5398 20.8264C27.2848 20.8264 25.1033 22.7565 25.0788 22.7805C24.8582 22.9735 24.5151 22.9735 24.319 22.7565C22.4317 20.9469 20.5689 20.5608 19.3432 20.5608L19.3432 20.5609Z" fill="#1A162E"/>
<path d="M24.7845 20.6841C24.711 20.6841 24.6619 20.6841 24.5884 20.6601C24.3923 20.5877 24.2453 20.4187 24.2208 20.2016C24.1964 19.9845 23.9756 18.0062 24.9806 16.8723C25.3973 16.3898 25.9856 16.1484 26.6964 16.1484H26.7208C29.2699 16.1725 30.9367 17.7408 31.0103 17.8132C31.1819 17.9821 31.2308 18.2473 31.1083 18.4646C30.9857 18.6817 30.7407 18.8023 30.4955 18.73C30.2258 18.6817 29.9318 18.6336 29.6621 18.6336C27.3336 18.6336 25.1766 20.5154 25.1521 20.5154C25.0541 20.6359 24.9071 20.6841 24.7845 20.6841L24.7845 20.6841ZM26.7208 17.2583C26.3286 17.2583 26.059 17.379 25.8384 17.596C25.5197 17.9338 25.3973 18.5129 25.3482 19.0194C26.1327 18.5127 27.3092 17.8614 28.6574 17.6201C28.1181 17.4271 27.4563 17.2583 26.7209 17.2583L26.7208 17.2583Z" fill="#1A162E"/>
<path d="M22.8974 19.4524H22.8239C19.1717 19.0423 17.3334 15.9299 16.9902 15.2787C16.598 14.9409 16.598 14.6272 16.6715 14.4342C16.7206 14.3135 16.8676 14 17.3822 14C17.6274 14 18.1176 14.0483 19.5637 14.5548C23.0691 15.7611 23.4367 18.7286 23.4611 18.8492C23.4856 19.0182 23.4121 19.187 23.2895 19.3077C23.1915 19.4041 23.0445 19.4524 22.8974 19.4524L22.8974 19.4524ZM18.3383 15.3268C18.902 16.1713 20.1766 17.667 22.1376 18.2218C21.8189 17.4257 21.0346 16.2434 19.2207 15.6163C18.8531 15.4715 18.5589 15.3751 18.3383 15.3268V15.3268Z" fill="#1A162E"/>
</svg>
