<svg width="35" height="36" viewBox="0 0 35 36" fill="none" xmlns="http://www.w3.org/2000/svg">
<path d="M14.8787 2.12132C16.0503 0.949748 17.9497 0.949747 19.1213 2.12132L31.8787 14.8787C33.0503 16.0503 33.0503 17.9497 31.8787 19.1213L19.1213 31.8787C17.9497 33.0503 16.0503 33.0503 14.8787 31.8787L2.12132 19.1213C0.949748 17.9497 0.949747 16.0503 2.12132 14.8787L14.8787 2.12132Z" fill="#FFB700"/>
<path d="M14.8787 2.12132C16.0503 0.949748 17.9497 0.949747 19.1213 2.12132L31.8787 14.8787C33.0503 16.0503 33.0503 17.9497 31.8787 19.1213L19.1213 31.8787C17.9497 33.0503 16.0503 33.0503 14.8787 31.8787L2.12132 19.1213C0.949748 17.9497 0.949747 16.0503 2.12132 14.8787L14.8787 2.12132Z" fill="white" fill-opacity="0.5"/>
<path d="M32.9076 34.4612C32.9917 30.0729 30.2217 26.0365 26.3813 24.5387C22.5059 23.0304 17.9767 24.339 15.3649 27.7235C13.9179 29.5999 13.0508 32.0225 13.0954 34.4612C13.1103 35.1392 14.1013 35.1392 14.0864 34.4612C14.0121 30.5669 16.4551 26.8934 19.8844 25.5533C21.6586 24.8595 23.6061 24.7702 25.4244 25.3168C27.1737 25.8372 28.7348 26.9355 29.8942 28.4174C31.1975 30.0834 31.9558 32.2906 31.916 34.4612C31.9013 35.1339 32.8923 35.1339 32.9072 34.4612L32.9076 34.4612Z" fill="#1A162E"/>
<path d="M12.4793 34.9869H14.5755H19.6102H25.6759H30.9191C31.7715 34.9869 32.6338 35.0184 33.486 34.9869H33.5208C34.1601 34.9869 34.1601 33.9359 33.5208 33.9359H31.4246H26.3899H20.3242H15.0811C14.2286 33.9359 13.3664 33.9044 12.5141 33.9359H12.4793C11.8402 33.9359 11.8402 34.9869 12.4793 34.9869Z" fill="#1A162E"/>
<path d="M21.5283 20.1714C21.8802 19.3516 22.4105 18.474 22.2122 17.5384C22.1329 17.1601 21.9347 16.8131 21.687 16.5347C21.4986 16.3191 21.3253 16.1142 21.2857 15.8094C21.2411 15.4469 21.4293 15.0684 21.5484 14.7373C21.6771 14.3799 21.8061 14.0227 21.9348 13.6652C22.029 13.4024 21.8308 13.0871 21.588 13.0187C21.3104 12.9399 21.0726 13.1186 20.9784 13.3866C20.8743 13.681 20.7653 13.9752 20.6612 14.2695C20.5423 14.5954 20.3887 14.9318 20.3292 15.2733C20.2648 15.6464 20.2796 16.0301 20.4086 16.3873C20.5423 16.7605 20.7653 17.018 21.0081 17.3071C21.3203 17.6803 21.3154 18.1323 21.1321 18.5684C20.9784 18.9258 20.8248 19.283 20.6713 19.6351C20.5622 19.8926 20.602 20.2028 20.8496 20.3551C21.0676 20.492 21.4195 20.429 21.5284 20.1714L21.5283 20.1714Z" fill="#1A162E"/>
<path d="M24.9863 21.7535C25.3382 20.9336 25.8685 20.056 25.6702 19.1205C25.5909 18.7422 25.3927 18.3952 25.145 18.1167C24.9566 17.9012 24.7833 17.6963 24.7437 17.3914C24.6991 17.0289 24.8873 16.6504 25.0064 16.3193C25.1352 15.9619 25.2641 15.6047 25.3929 15.2472C25.487 14.9844 25.2888 14.6691 25.046 14.6008C24.7684 14.522 24.5306 14.7007 24.4364 14.9686C24.3323 15.263 24.2233 15.5572 24.1192 15.8516C24.0003 16.1774 23.8467 16.5138 23.7872 16.8553C23.7228 17.2285 23.7376 17.6121 23.8666 17.9693C24.0003 18.3425 24.2233 18.6 24.4661 18.8891C24.7783 19.2623 24.7734 19.7143 24.5901 20.1504C24.4364 20.5078 24.2828 20.865 24.1293 21.2171C24.0202 21.4747 24.06 21.7848 24.3076 21.9371C24.5206 22.074 24.8725 22.011 24.9864 21.7535L24.9863 21.7535Z" fill="#1A162E"/>
</svg>
