<svg width="33" height="36" viewBox="0 0 33 36" fill="none" xmlns="http://www.w3.org/2000/svg">
<path d="M13.5 0.866025C14.4282 0.330127 15.5718 0.330127 16.5 0.866025L26.4904 6.63397C27.4186 7.16987 27.9904 8.16025 27.9904 9.23205V20.768C27.9904 21.8397 27.4186 22.8301 26.4904 23.366L16.5 29.134C15.5718 29.6699 14.4282 29.6699 13.5 29.134L3.50962 23.366C2.58142 22.8301 2.00962 21.8397 2.00962 20.768V9.23205C2.00962 8.16025 2.58142 7.16987 3.50962 6.63397L13.5 0.866025Z" fill="#67B044"/>
<path d="M13.5 0.866025C14.4282 0.330127 15.5718 0.330127 16.5 0.866025L26.4904 6.63397C27.4186 7.16987 27.9904 8.16025 27.9904 9.23205V20.768C27.9904 21.8397 27.4186 22.8301 26.4904 23.366L16.5 29.134C15.5718 29.6699 14.4282 29.6699 13.5 29.134L3.50962 23.366C2.58142 22.8301 2.00962 21.8397 2.00962 20.768V9.23205C2.00962 8.16025 2.58142 7.16987 3.50962 6.63397L13.5 0.866025Z" fill="white" fill-opacity="0.4"/>
<path d="M21.0002 13C16.5894 13 13 16.5268 13 20.859C13 23.1679 14.0258 25.2404 15.6457 26.6796V34.3542C15.6462 34.5889 15.776 34.8049 15.9848 34.9186C16.1936 35.0326 16.449 35.0264 16.6519 34.9028L21 32.2523L25.3532 34.9028C25.5562 35.0264 25.8115 35.0326 26.0204 34.9186C26.2292 34.8049 26.359 34.5889 26.3595 34.3542V26.6759C27.9766 25.237 29 23.1657 29 20.859C29 16.5266 25.4108 13 20.9998 13H21.0002ZM21.0002 14.2943C24.6988 14.2943 27.6827 17.2263 27.6827 20.859C27.6827 24.4918 24.699 27.4229 21.0002 27.4229C17.3014 27.4229 14.3177 24.4922 14.3177 20.859C14.3177 17.2259 17.3014 14.2943 21.0002 14.2943ZM20.959 16.1775C20.693 16.1942 20.4632 16.3646 20.3761 16.6098L19.559 18.9013L17.0703 18.9506C16.7894 18.9571 16.5435 19.1355 16.4567 19.3957C16.3697 19.6559 16.4611 19.9412 16.6843 20.1072L18.6672 21.5733L17.9479 23.8939C17.8679 24.1559 17.9663 24.4387 18.1935 24.5992C18.4205 24.7599 18.727 24.7634 18.958 24.6081L21.0002 23.2241L23.0436 24.6081C23.2747 24.7653 23.5826 24.763 23.8108 24.6019C24.0391 24.441 24.1376 24.1568 24.0563 23.894L23.3358 21.5734L25.32 20.1072C25.5433 19.9411 25.6345 19.6554 25.5474 19.3952C25.4603 19.1349 25.2137 18.9566 24.9327 18.9507L22.444 18.9014L21.6269 16.6099C21.5295 16.336 21.2562 16.159 20.9591 16.1776L20.959 16.1775ZM21.0002 18.7863L21.345 19.7469C21.4362 20.0017 21.6807 20.1741 21.9576 20.1792L23.0037 20.2007L22.1686 20.8162C21.9483 20.9793 21.8553 21.2586 21.9357 21.5164L22.2381 22.4909L21.3798 21.9095C21.1524 21.7553 20.8505 21.7553 20.6232 21.9095L19.7649 22.4909L20.0673 21.5164C20.1476 21.2586 20.0546 20.9792 19.8344 20.8162L18.9992 20.2007L20.0454 20.1792C20.3224 20.1741 20.5667 20.0017 20.6579 19.7469L21.0002 18.7863ZM25.042 27.629V33.193L21.3502 30.9432C21.1373 30.8136 20.8682 30.8136 20.6553 30.9432L16.9635 33.193V27.6318C18.1503 28.317 19.5272 28.7175 21.0002 28.7175C22.4752 28.7175 23.8541 28.3161 25.042 27.6293V27.629Z" fill="#1A162E"/>
</svg>
