<svg width="36" height="36" viewBox="0 0 36 36" fill="none" xmlns="http://www.w3.org/2000/svg">
<path d="M7.5 27.9904C9.86806 29.3576 12.5648 30.0515 15.2987 29.997C18.0325 29.9426 20.6995 29.1419 23.0113 27.6815C25.323 26.2211 27.1916 24.1565 28.415 21.7111C29.6384 19.2656 30.17 16.5322 29.9524 13.8065C29.7349 11.0808 28.7764 8.46636 27.1806 6.24592C25.5848 4.02548 23.4123 2.2835 20.8982 1.20829C18.3841 0.133086 15.6238 -0.234428 12.916 0.145481C10.2081 0.525389 7.65554 1.63827 5.53434 3.3638L15 15L7.5 27.9904Z" fill="#67B044"/>
<path d="M7.5 27.9904C9.86806 29.3576 12.5648 30.0515 15.2987 29.997C18.0325 29.9426 20.6995 29.1419 23.0113 27.6815C25.323 26.2211 27.1916 24.1565 28.415 21.7111C29.6384 19.2656 30.17 16.5322 29.9524 13.8065C29.7349 11.0808 28.7764 8.46636 27.1806 6.24592C25.5848 4.02548 23.4123 2.2835 20.8982 1.20829C18.3841 0.133086 15.6238 -0.234428 12.916 0.145481C10.2081 0.525389 7.65554 1.63827 5.53434 3.3638L15 15L7.5 27.9904Z" fill="white" fill-opacity="0.2"/>
<path d="M16 15H32C32.5304 15 33.0391 15.2107 33.4142 15.5858C33.7893 15.9609 34 16.4696 34 17V23C34 25.6522 32.9464 28.1957 31.0711 30.0711C29.1957 31.9464 26.6522 33 24 33C22.6868 33 21.3864 32.7413 20.1732 32.2388C18.9599 31.7362 17.8575 30.9997 16.9289 30.0711C15.0536 28.1957 14 25.6522 14 23V17C14 16.4696 14.2107 15.9609 14.5858 15.5858C14.9609 15.2107 15.4696 15 16 15V15Z" stroke="#1A162E" stroke-width="1.5" stroke-linecap="round" stroke-linejoin="round"/>
<path d="M20 22L24 26L28 22" stroke="#1A162E" stroke-width="1.5" stroke-linecap="round" stroke-linejoin="round"/>
</svg>
