<svg width="36" height="36" viewBox="0 0 36 36" fill="none" xmlns="http://www.w3.org/2000/svg">
<path d="M15 0C11.5297 -4.13833e-08 8.1667 1.20329 5.4841 3.40484C2.8015 5.6064 0.965248 8.67 0.288221 12.0736C-0.388807 15.4773 0.13528 19.0104 1.77118 22.071C3.40708 25.1315 6.05358 27.5302 9.25975 28.8582C12.4659 30.1862 16.0334 30.3615 19.3543 29.3541C22.6752 28.3467 25.544 26.219 27.472 23.3336C29.4001 20.4481 30.2679 16.9834 29.9278 13.5297C29.5876 10.0761 28.0605 6.84729 25.6066 4.39339L15 15V0Z" fill="#7644E1"/>
<path d="M15 0C11.5297 -4.13833e-08 8.1667 1.20329 5.4841 3.40484C2.8015 5.6064 0.965248 8.67 0.288221 12.0736C-0.388807 15.4773 0.13528 19.0104 1.77118 22.071C3.40708 25.1315 6.05358 27.5302 9.25975 28.8582C12.4659 30.1862 16.0334 30.3615 19.3543 29.3541C22.6752 28.3467 25.544 26.219 27.472 23.3336C29.4001 20.4481 30.2679 16.9834 29.9278 13.5297C29.5876 10.0761 28.0605 6.84729 25.6066 4.39339L15 15V0Z" fill="white" fill-opacity="0.7"/>
<path d="M22.9922 34.0429H15.6955L14.9145 19.6883H25.3924L25.2972 21.3343H25.2971C25.2866 21.4603 25.3273 21.5853 25.4097 21.6807C25.4923 21.7762 25.6097 21.8343 25.7353 21.8416C25.8618 21.858 25.9894 21.8192 26.0859 21.7351C26.1823 21.651 26.2384 21.5295 26.2401 21.4014L26.3449 19.6883H26.8497C26.9761 19.6883 27.0972 19.6379 27.1866 19.5481C27.2758 19.4585 27.3259 19.3367 27.3259 19.2099C27.3259 19.083 27.2758 18.9612 27.1866 18.8716C27.0972 18.7818 26.9761 18.7314 26.8497 18.7314H20.6297V16.1571C20.6302 15.8016 20.8094 15.4705 21.1059 15.2768L23.2396 13.8797V13.8795C23.3461 13.8111 23.4203 13.7023 23.4456 13.5778C23.4707 13.4533 23.4444 13.3239 23.373 13.2193C23.2306 12.9975 22.9368 12.9334 22.7157 13.0756L20.5535 14.4729C20.0001 14.8524 19.6716 15.4841 19.6771 16.1571V18.7314H13.4762C13.2133 18.7314 13 18.9455 13 19.2099C13 19.3367 13.0502 19.4585 13.1395 19.5482C13.2289 19.6379 13.35 19.6883 13.4762 19.6883H13.9621L14.7622 34.5406C14.7724 34.7974 14.9827 35.0002 15.2385 35H22.9825C23.1088 35 23.2299 34.9496 23.3192 34.8598C23.4086 34.77 23.4588 34.6484 23.4588 34.5214C23.4588 34.2609 23.2513 34.0481 22.992 34.0429L22.9922 34.0429Z" fill="#1A162E"/>
<path d="M31.4706 28.3011L34.9188 23.3056C35.066 23.0863 35.0085 22.7886 34.7901 22.6406C34.5718 22.4926 34.2755 22.5505 34.1282 22.7698L30.318 28.2724H28.3559C28.3241 28.131 28.3082 27.9865 28.3082 27.8416C28.303 27.2088 28.5479 26.5997 28.9887 26.1478C29.4298 25.6957 30.0311 25.4377 30.6609 25.4302C30.9108 25.4272 31.1593 25.4693 31.3943 25.5545C31.6466 25.6368 31.918 25.5005 32.0039 25.2483C32.0134 25.1817 32.0134 25.114 32.0039 25.0474V24.9805V24.9803C32.0347 23.7974 31.4347 22.6878 30.4304 22.0699C29.4259 21.4517 28.1696 21.4189 27.1346 21.9836C26.0996 22.5485 25.4431 23.6252 25.4124 24.8081C24.834 25.0806 24.3455 25.5138 24.0045 26.0565C23.6635 26.5992 23.4844 27.2287 23.4883 27.8704C23.4912 28.0951 23.5134 28.3194 23.555 28.5402C23.5109 28.629 23.4943 28.7291 23.5073 28.8274L24.4597 34.5693H24.4599C24.4971 34.7997 24.6943 34.9696 24.9267 34.9713H32.547C32.7794 34.9696 32.9766 34.7997 33.0138 34.5693L33.9662 28.8274C33.981 28.7218 33.9609 28.6142 33.9091 28.5212C33.9538 28.2973 33.9793 28.07 33.9853 27.8417C33.9842 27.4909 33.9295 27.1424 33.8234 26.8082C33.7445 26.544 33.4672 26.394 33.2043 26.4733C32.9411 26.5525 32.792 26.8311 32.8709 27.0952C32.9498 27.3364 32.9915 27.588 32.9946 27.8417C33.0117 27.9943 33.018 28.1478 33.0137 28.3012L31.4706 28.3011ZM28.7273 22.5593C29.2723 22.5623 29.7995 22.7544 30.2196 23.1031C30.6399 23.4521 30.9269 23.936 31.0324 24.4732H30.6609C29.953 24.4759 29.2661 24.7149 28.7082 25.1527C28.1563 24.7427 27.4896 24.5182 26.8032 24.5116H26.4316C26.5306 23.9697 26.8135 23.4791 27.2321 23.1231C27.6505 22.7672 28.1789 22.5679 28.7272 22.5592L28.7273 22.5593ZM26.8222 25.4301V25.4303C27.264 25.4298 27.6969 25.556 28.07 25.7939C27.6338 26.3725 27.3964 27.0778 27.3938 27.8035C27.383 27.9469 27.383 28.0907 27.3938 28.2341H24.4409C24.4311 28.1004 24.4311 27.9661 24.4409 27.8322C24.4384 27.2026 24.6829 26.5975 25.1216 26.1477C25.5601 25.6982 26.1576 25.4403 26.7842 25.4303L26.8222 25.4301ZM32.1755 34.0429H25.3172L24.5265 29.258H32.928L32.1755 34.0429Z" fill="#1A162E"/>
</svg>
