<svg width="153" height="24" viewBox="0 0 153 24" fill="none" xmlns="http://www.w3.org/2000/svg">
<path fill-rule="evenodd" clip-rule="evenodd" d="M13.6043 4.17701L15.4317 7.82776C15.6108 8.18616 15.9565 8.43467 16.3573 8.49218L20.4453 9.08062C21.4554 9.22644 21.8573 10.4505 21.1263 11.1519L18.1702 13.9924C17.8797 14.2718 17.7474 14.6733 17.8162 15.0676L18.5138 19.0778C18.6856 20.0698 17.6298 20.8267 16.727 20.3574L13.0732 18.4627C12.715 18.2768 12.286 18.2768 11.9268 18.4627L8.273 20.3574C7.37023 20.8267 6.31439 20.0698 6.48724 19.0778L7.18385 15.0676C7.25257 14.6733 7.12033 14.2718 6.82982 13.9924L3.87368 11.1519C3.14272 10.4505 3.54464 9.22644 4.55466 9.08062L8.64265 8.49218C9.04354 8.43467 9.39028 8.18616 9.56937 7.82776L11.3957 4.17701C11.8477 3.27433 13.1523 3.27433 13.6043 4.17701Z" fill="#FFB700"/>
<path fill-rule="evenodd" clip-rule="evenodd" d="M45.6043 4.17701L47.4317 7.82776C47.6108 8.18616 47.9565 8.43467 48.3573 8.49218L52.4453 9.08062C53.4554 9.22644 53.8573 10.4505 53.1263 11.1519L50.1702 13.9924C49.8797 14.2718 49.7474 14.6733 49.8162 15.0676L50.5138 19.0778C50.6856 20.0698 49.6298 20.8267 48.727 20.3574L45.0732 18.4627C44.715 18.2768 44.286 18.2768 43.9268 18.4627L40.273 20.3574C39.3702 20.8267 38.3144 20.0698 38.4872 19.0778L39.1838 15.0676C39.2526 14.6733 39.1203 14.2718 38.8298 13.9924L35.8737 11.1519C35.1427 10.4505 35.5446 9.22644 36.5547 9.08062L40.6427 8.49218C41.0435 8.43467 41.3903 8.18616 41.5694 7.82776L43.3957 4.17701C43.8477 3.27433 45.1523 3.27433 45.6043 4.17701Z" fill="#FFB700"/>
<path fill-rule="evenodd" clip-rule="evenodd" d="M77.6043 4.17701L79.4317 7.82776C79.6108 8.18616 79.9565 8.43467 80.3573 8.49218L84.4453 9.08062C85.4554 9.22644 85.8573 10.4505 85.1263 11.1519L82.1702 13.9924C81.8797 14.2718 81.7474 14.6733 81.8162 15.0676L82.5138 19.0778C82.6856 20.0698 81.6298 20.8267 80.727 20.3574L77.0732 18.4627C76.715 18.2768 76.286 18.2768 75.9268 18.4627L72.273 20.3574C71.3702 20.8267 70.3144 20.0698 70.4872 19.0778L71.1838 15.0676C71.2526 14.6733 71.1203 14.2718 70.8298 13.9924L67.8737 11.1519C67.1427 10.4505 67.5446 9.22644 68.5547 9.08062L72.6427 8.49218C73.0435 8.43467 73.3903 8.18616 73.5694 7.82776L75.3957 4.17701C75.8477 3.27433 77.1523 3.27433 77.6043 4.17701Z" fill="#FFB700"/>
<path fill-rule="evenodd" clip-rule="evenodd" d="M109.604 4.17701L111.432 7.82776C111.611 8.18616 111.956 8.43467 112.357 8.49218L116.445 9.08062C117.455 9.22644 117.857 10.4505 117.126 11.1519L114.17 13.9924C113.88 14.2718 113.747 14.6733 113.816 15.0676L114.514 19.0778C114.686 20.0698 113.63 20.8267 112.727 20.3574L109.073 18.4627C108.715 18.2768 108.286 18.2768 107.927 18.4627L104.273 20.3574C103.37 20.8267 102.314 20.0698 102.487 19.0778L103.184 15.0676C103.253 14.6733 103.12 14.2718 102.83 13.9924L99.8737 11.1519C99.1427 10.4505 99.5446 9.22644 100.555 9.08062L104.643 8.49218C105.044 8.43467 105.39 8.18616 105.569 7.82776L107.396 4.17701C107.848 3.27433 109.152 3.27433 109.604 4.17701Z" stroke="#FFB700" stroke-width="1.5" stroke-linecap="round" stroke-linejoin="round"/>
<path fill-rule="evenodd" clip-rule="evenodd" d="M109.073 4.17701V7.82776V8.49218V9.08062V11.1519V13.9924V15.0676V19.0778V18.4627C108.715 18.2768 108.286 18.2768 107.927 18.4627L104.273 20.3574C103.37 20.8267 102.314 20.0698 102.487 19.0778L103.184 15.0676C103.253 14.6733 103.12 14.2718 102.83 13.9924L99.8737 11.1519C99.1427 10.4505 99.5446 9.22644 100.555 9.08062L104.643 8.49218C105.044 8.43467 105.39 8.18616 105.569 7.82776L107.396 4.17701C107.848 3.27433 108.621 3.27433 109.073 4.17701Z" fill="#FFB700"/>
<path fill-rule="evenodd" clip-rule="evenodd" d="M141.604 4.17701L143.432 7.82776C143.611 8.18616 143.956 8.43467 144.357 8.49218L148.445 9.08062C149.455 9.22644 149.857 10.4505 149.126 11.1519L146.17 13.9924C145.88 14.2718 145.747 14.6733 145.816 15.0676L146.514 19.0778C146.686 20.0698 145.63 20.8267 144.727 20.3574L141.073 18.4627C140.715 18.2768 140.286 18.2768 139.927 18.4627L136.273 20.3574C135.37 20.8267 134.314 20.0698 134.487 19.0778L135.184 15.0676C135.253 14.6733 135.12 14.2718 134.83 13.9924L131.874 11.1519C131.143 10.4505 131.545 9.22644 132.555 9.08062L136.643 8.49218C137.044 8.43467 137.39 8.18616 137.569 7.82776L139.396 4.17701C139.848 3.27433 141.152 3.27433 141.604 4.17701Z" stroke="#FFB700" stroke-width="1.5" stroke-linecap="round" stroke-linejoin="round"/>
</svg>
