<svg width="36" height="36" viewBox="0 0 36 36" fill="none" xmlns="http://www.w3.org/2000/svg">
<path d="M13.9788 3.63133C16.2628 1.56871 19.7372 1.56871 22.0212 3.63133L28.7193 9.67986C29.6552 10.5251 30.3011 11.6437 30.5651 12.8769L32.4543 21.7018C33.0985 24.7112 31.3613 27.7201 28.433 28.6668L19.8458 31.4432C18.6459 31.8312 17.3541 31.8312 16.1542 31.4432L7.56699 28.6668C4.63867 27.7201 2.90151 24.7112 3.54574 21.7018L5.43492 12.8769C5.69892 11.6437 6.34477 10.5251 7.28074 9.67987L13.9788 3.63133Z" fill="#FFB700"/>
<path d="M13.9788 3.63133C16.2628 1.56871 19.7372 1.56871 22.0212 3.63133L28.7193 9.67986C29.6552 10.5251 30.3011 11.6437 30.5651 12.8769L32.4543 21.7018C33.0985 24.7112 31.3613 27.7201 28.433 28.6668L19.8458 31.4432C18.6459 31.8312 17.3541 31.8312 16.1542 31.4432L7.56699 28.6668C4.63867 27.7201 2.90151 24.7112 3.54574 21.7018L5.43492 12.8769C5.69892 11.6437 6.34477 10.5251 7.28074 9.67987L13.9788 3.63133Z" fill="white" fill-opacity="0.6"/>
<path d="M23.4521 17.2656C23.1414 17.2656 22.8896 17.5174 22.8896 17.8281V23.453C22.8896 23.7637 23.1414 24.0155 23.4521 24.0155C23.7628 24.0155 24.0146 23.7637 24.0146 23.453V17.8281C24.0146 17.5174 23.7628 17.2656 23.4521 17.2656Z" fill="#1A162E"/>
<path d="M21.2021 27.0156C20.8914 27.0156 20.6396 27.2674 20.6396 27.5781V30.9531C20.6396 31.2638 20.8914 31.5156 21.2021 31.5156C21.5128 31.5156 21.7646 31.2638 21.7646 30.9531V27.5781C21.7646 27.2674 21.5128 27.0156 21.2021 27.0156Z" fill="#1A162E"/>
<path d="M32.8271 32.2657H28.4262C28.718 31.8448 28.8897 31.3344 28.8897 30.7845V27.372C28.8897 26.0557 27.9088 24.965 26.6397 24.7906V17.2656C26.6397 15.8182 25.4621 14.6406 24.0147 14.6406C22.5674 14.6406 21.3898 15.8183 21.3898 17.2656V24.7906C20.1206 24.9649 19.1398 26.0557 19.1398 27.372V30.7845C19.1398 31.3344 19.3114 31.8448 19.6034 32.2657H15.2021C14.8914 32.2657 14.6396 32.5175 14.6396 32.8282C14.6396 33.1389 14.8914 33.3907 15.2021 33.3907H32.8271C33.1378 33.3907 33.3895 33.1389 33.3895 32.8282C33.3895 32.5175 33.1378 32.2657 32.8271 32.2657H32.8271ZM22.5146 17.2657C22.5146 16.4386 23.1875 15.7657 24.0146 15.7657C24.8418 15.7657 25.5146 16.4386 25.5146 17.2657V24.7657H22.5146V17.2657ZM21.7459 32.2657C20.9292 32.2657 20.2646 31.6012 20.2646 30.7845V27.372C20.2646 26.5553 20.9292 25.8907 21.7459 25.8907H26.2832C27.0999 25.8907 27.7645 26.5553 27.7645 27.372V30.7845C27.7645 31.6012 27.0999 32.2657 26.2832 32.2657H21.7459Z" fill="#1A162E"/>
</svg>
